HIERARCHY
ROOT SimulationBone
{
	OFFSET 0.000000 0.000000 0.000000
	CHANNELS 6 Xposition Yposition Zposition Zrotation Yrotation Xrotation 
	JOINT Hips
	{
		OFFSET 0.000000 0.000000 0.000000
		CHANNELS 6 Xposition Yposition Zposition Zrotation Yrotation Xrotation 
		JOINT LeftUpLeg
		{
			OFFSET 0.103458 1.857838 10.548509
			CHANNELS 3 Zrotation Yrotation Xrotation
			JOINT LeftLeg
			{
				OFFSET 43.500004 -0.000038 -0.000002
				CHANNELS 3 Zrotation Yrotation Xrotation
				JOINT LeftFoot
				{
					OFFSET 42.372196 0.000015 0.000010
					CHANNELS 3 Zrotation Yrotation Xrotation
					JOINT LeftToe
					{
						OFFSET 17.300011 0.000003 -0.000006
						CHANNELS 3 Zrotation Yrotation Xrotation
						End Site
						{
							OFFSET 0.000000 0.000000 0.000000
						}
					}
				}
			}
		}
		JOINT RightUpLeg
		{
			OFFSET 0.103461 1.857837 -10.548498
			CHANNELS 3 Zrotation Yrotation Xrotation
			JOINT RightLeg
			{
				OFFSET 43.500046 -0.000042 0.000031
				CHANNELS 3 Zrotation Yrotation Xrotation
				JOINT RightFoot
				{
					OFFSET 42.372253 0.000011 -0.000004
					CHANNELS 3 Zrotation Yrotation Xrotation
					JOINT RightToe
					{
						OFFSET 17.299978 -0.000010 0.000025
						CHANNELS 3 Zrotation Yrotation Xrotation
						End Site
						{
							OFFSET 0.000000 0.000000 0.000000
						}
					}
				}
			}
		}
		JOINT Spine
		{
			OFFSET 6.901964 -2.603743 0.000001
			CHANNELS 3 Zrotation Yrotation Xrotation
			JOINT Spine1
			{
				OFFSET 12.588102 0.000002 0.000000
				CHANNELS 3 Zrotation Yrotation Xrotation
				JOINT Spine2
				{
					OFFSET 12.343204 0.000009 -0.000003
					CHANNELS 3 Zrotation Yrotation Xrotation
					JOINT Neck
					{
						OFFSET 25.832901 -0.000015 0.000002
						CHANNELS 3 Zrotation Yrotation Xrotation
						JOINT Head
						{
							OFFSET 11.766612 0.000023 -0.000003
							CHANNELS 3 Zrotation Yrotation Xrotation
							End Site
							{
								OFFSET 0.000000 0.000000 0.000000
							}
						}
					}
					JOINT LeftShoulder
					{
						OFFSET 19.745905 -1.480377 6.000110
						CHANNELS 3 Zrotation Yrotation Xrotation
						JOINT LeftArm
						{
							OFFSET 11.284127 -0.000004 -0.000022
							CHANNELS 3 Zrotation Yrotation Xrotation
							JOINT LeftForeArm
							{
								OFFSET 33.000050 -0.000022 0.000026
								CHANNELS 3 Zrotation Yrotation Xrotation
								JOINT LeftHand
								{
									OFFSET 25.200010 0.000035 0.000011
									CHANNELS 3 Zrotation Yrotation Xrotation
									End Site
									{
										OFFSET 0.000000 0.000000 0.000000
									}
								}
							}
						}
					}
					JOINT RightShoulder
					{
						OFFSET 19.746092 -1.480381 -6.000066
						CHANNELS 3 Zrotation Yrotation Xrotation
						JOINT RightArm
						{
							OFFSET 11.284147 -0.000020 -0.000017
							CHANNELS 3 Zrotation Yrotation Xrotation
							JOINT RightForeArm
							{
								OFFSET 33.000095 0.000005 0.000016
								CHANNELS 3 Zrotation Yrotation Xrotation
								JOINT RightHand
								{
									OFFSET 25.199768 0.000156 0.000415
									CHANNELS 3 Zrotation Yrotation Xrotation
									End Site
									{
										OFFSET 0.000000 0.000000 0.000000
									}
								}
							}
						}
					}
				}
			}
		}
	}
}
MOTION
Frames: 11
Frame Time: 0.033333
-159.488727 0.000000 -151.238353 180.000000 -80.311961 180.000000 -5.236756 80.919449 -0.687060 86.982581 -5.337916 -177.887094 153.716590 -0.075709 171.962457 -60.958038 -1.884544 5.139699 102.663597 -3.177002 3.334259 21.454551 0.003092 -0.000000 173.016847 11.076705 179.459997 -104.516900 -4.063306 1.750972 93.536026 0.125567 9.005879 21.454555 -0.003107 -0.000012 10.227265 -1.976661 0.571741 10.431176 -3.996786 0.963341 10.112291 -3.990745 0.987504 2.550273 3.616860 -0.894837 -19.596229 -4.283544 1.254931 -174.600699 -79.616298 -7.013169 -1.745709 47.892935 37.649314 -60.745237 -17.914309 2.325747 -4.861718 -11.052928 20.961231 168.890798 74.345455 -9.971923 5.291620 -51.484036 -45.556778 -53.946808 20.990488 -2.317183 1.814907 18.961343 -10.855112 
-159.630179 0.000000 -142.767662 180.000000 -80.959891 180.000000 -6.304887 81.397331 -0.974623 86.486827 -5.287753 -178.119542 159.382396 2.036414 173.308086 -58.672281 -1.395963 4.140043 104.135496 -2.573315 3.155812 21.454555 0.003084 -0.000003 161.893775 8.169405 179.995415 -105.438785 -3.943499 2.175379 95.199423 -0.288118 9.111327 21.454557 -0.003106 -0.000018 10.047808 -1.935365 -0.033033 10.092457 -3.860451 -0.235016 9.773568 -3.861655 -0.211658 2.812260 3.606031 0.037570 -19.266698 -4.380859 2.235711 -170.902084 -79.646433 -10.773398 -3.200866 50.397616 26.961537 -69.145973 -16.126326 2.535053 -6.053054 -14.540143 19.069823 170.489677 74.252332 -8.338887 9.572890 -50.478462 -50.501671 -55.798428 20.166890 -2.327696 -0.361002 11.437823 -19.542049 
-159.716984 0.000000 -134.324021 180.000000 -81.564751 180.000000 -6.501920 82.798103 -1.159648 86.678400 -4.498302 -179.180386 167.716962 3.043301 174.647076 -52.834495 -1.405300 3.037187 101.996301 -1.793355 3.232596 21.454551 0.003101 -0.000000 153.130123 4.601003 -179.373636 -99.378535 -3.444866 2.716225 95.274104 -0.764505 8.619923 21.454557 -0.003104 -0.000018 9.904776 -1.719485 -0.378732 9.814423 -3.400646 -0.902393 9.495758 -3.405902 -0.881807 3.537570 4.577664 0.832413 -19.428461 -5.864132 3.751127 -166.600185 -80.761304 -15.143192 -2.819781 53.598021 18.057512 -79.484032 -11.928830 2.678600 -8.594985 -15.333379 21.844596 173.733416 74.688433 -5.005290 13.985418 -49.519821 -57.487858 -57.214623 19.930045 -2.363551 -1.907298 10.134073 -26.399841 
-159.753651 0.000000 -125.904352 180.000000 -82.127700 180.000000 -6.001878 84.839943 -1.276023 87.082209 -3.750797 179.900774 177.268093 3.956607 177.009379 -44.285639 -2.166961 1.569888 95.019980 -0.558585 3.703434 21.454548 0.003094 0.000002 147.933851 1.927706 -178.702160 -87.358803 -2.362217 3.154358 94.016318 -1.205315 7.365161 21.454560 -0.003107 -0.000018 9.685567 -1.436042 -0.728458 9.380398 -2.808320 -1.571376 9.061996 -2.817641 -1.554375 5.989661 4.374479 1.764928 -20.154657 -6.209109 4.784821 -168.119178 -80.536222 -13.601826 -1.062938 54.380327 11.865161 -87.788114 -6.603538 2.669092 -12.969299 -15.790952 27.331238 173.922803 75.185718 -4.797521 19.571280 -48.759211 -64.454494 -57.044736 19.769363 -2.346269 -1.680265 10.735840 -25.061755 
-159.744690 0.000000 -117.505575 180.000000 -82.649986 180.000000 -4.929804 86.982651 -1.201190 87.087438 -2.882935 179.455672 -174.222922 4.008898 178.862942 -35.748056 -2.711216 0.730806 82.892863 0.248783 2.899547 21.454555 0.003084 0.000004 146.034458 -0.064998 -176.377150 -70.556148 -2.310536 3.658218 90.909913 -1.282200 8.209672 21.454558 -0.003116 -0.000016 9.298896 -1.096820 -1.086195 8.607180 -2.109915 -2.251257 8.289112 -2.123323 -2.238479 7.812082 4.032437 2.424339 -19.312078 -6.587038 5.466159 -165.759265 -81.056375 -15.995195 0.826918 55.265267 9.768359 -94.050755 -2.676836 2.672274 -13.280959 -15.039931 29.457998 172.044897 75.464131 -6.709176 25.871636 -48.022292 -69.025284 -55.886291 18.789570 -2.237002 -0.520233 9.298222 -21.280293 
-159.694611 0.000000 -109.124611 180.000000 -83.132937 180.000000 -3.790247 88.714912 -1.159750 86.424640 -3.053198 179.820528 -168.022408 4.593990 -179.129292 -29.177779 -2.623492 0.008294 69.255215 -0.743436 -2.514929 21.454557 0.003094 0.000002 146.497558 -0.178600 -172.988625 -50.879800 -2.864633 2.534322 89.536431 -0.189222 9.697964 21.454562 -0.003108 -0.000016 8.771848 -0.952711 -1.544601 7.556608 -1.802749 -3.148363 7.238857 -1.821592 -3.137425 9.481403 3.673277 2.844854 -18.433817 -6.648873 5.786339 -161.222708 -82.456625 -20.579894 2.328207 56.326699 11.866825 -97.535586 -1.758534 2.763139 -15.174138 -15.509936 28.378555 172.254297 76.471269 -6.464389 31.406210 -47.737975 -72.830177 -55.321862 18.204881 -2.177004 1.212357 6.275156 -22.045061 
-159.607924 0.000000 -100.758380 180.000000 -83.577941 180.000000 -2.670591 89.714798 -1.223187 86.131942 -3.908981 -179.630984 -163.937640 5.268094 -177.783855 -27.303430 -2.686895 -1.152447 60.228888 -3.538449 -10.362854 21.454551 0.003098 -0.000006 148.295537 -0.070993 -172.191487 -31.991018 -2.244020 0.275342 86.999357 1.479231 9.275478 21.454558 -0.003120 -0.000021 8.386438 -0.967114 -1.973797 6.792667 -1.817105 -4.001262 6.475218 -1.841079 -3.990232 10.630290 3.087650 3.030299 -17.811335 -6.585344 5.841313 -163.003803 -82.864135 -18.773784 4.399246 56.017619 14.547996 -99.463195 -1.335015 2.819208 -13.987918 -16.027551 27.819803 172.386093 76.512537 -6.328611 35.367536 -46.471241 -75.165911 -55.695675 18.575808 -2.215601 1.418571 2.073280 -25.112934 
-159.489139 0.000000 -92.403804 180.000000 -83.986445 180.000000 -1.986410 89.654778 -1.372481 86.601186 -4.799899 -179.430511 -162.049353 5.742901 -179.855328 -31.678701 -2.152691 0.658070 59.862380 -5.873516 -12.495426 21.454553 0.003089 0.000003 150.244286 0.029206 -176.672637 -20.171775 -0.440104 0.937379 85.910106 1.230885 10.209881 21.454555 -0.003106 -0.000020 8.300270 -1.022482 -2.195047 6.625882 -1.918071 -4.445458 6.308621 -1.944730 -4.433817 9.932812 2.863366 2.753216 -15.497788 -6.812813 5.470799 -163.035605 -83.790350 -18.733303 6.273895 56.748292 17.646924 -99.018967 -1.491827 2.810439 -14.272420 -16.411285 27.697221 174.276525 76.506028 -4.399564 36.546204 -45.558349 -76.026358 -56.166975 18.714899 -2.242109 1.760000 0.790483 -24.593049 
-159.342765 0.000000 -84.057802 180.000000 -84.359936 180.000000 -2.032058 88.851227 -1.304171 88.070926 -4.198940 -179.587323 -163.327472 4.615601 179.161340 -42.984488 -2.372621 2.943781 61.607787 -6.623496 -10.783127 21.454551 0.003090 0.000001 151.273882 -0.757293 179.658250 -19.504517 0.828305 2.748278 82.992310 -0.037442 9.052500 21.454560 -0.003115 -0.000020 8.638653 -0.726152 -2.121890 7.289652 -1.317551 -4.285444 6.972415 -1.343251 -4.277432 9.565787 1.798726 2.072472 -16.088210 -6.935203 4.771162 -165.145969 -83.445275 -16.604009 6.091245 57.341064 19.141926 -96.201111 -1.964406 2.718153 -12.240352 -14.971677 24.904009 175.981491 76.311791 -2.664080 34.276905 -45.214660 -73.275950 -56.401711 18.223327 -2.217203 3.030469 0.426244 -23.899093 
-159.173313 0.000000 -75.717297 180.000000 -84.699941 180.000000 -2.296054 87.244041 -1.080037 90.088435 -2.480845 179.873816 -166.496844 2.340903 177.701851 -57.900080 -2.091531 3.770960 64.170665 -6.882991 -10.541028 21.454543 0.003089 -0.000004 150.600289 -3.697200 -179.747944 -31.785040 -0.479434 3.531413 80.172050 -2.611351 -0.417855 21.454557 -0.003094 -0.000015 9.184247 -0.200637 -1.791563 8.359965 -0.271501 -3.592866 8.042534 -0.293037 -3.591161 9.350308 0.917673 1.291426 -17.118998 -6.150859 3.673462 -166.632997 -82.902842 -15.103124 5.509033 58.526559 20.614744 -91.887949 -2.865717 2.589359 -8.709902 -14.717659 23.332531 177.253900 75.563571 -1.381707 29.319905 -44.967069 -68.747951 -56.259790 18.830208 -2.253326 2.644805 -0.164517 -21.497829 
-158.985291 0.000000 -67.379207 180.000000 -85.008014 180.000000 -2.305882 84.860764 -0.748387 93.586120 -1.572167 179.054857 -169.964586 0.366502 174.990676 -73.865006 -0.570483 3.238647 66.795166 -5.331639 -8.163131 21.454546 0.003088 -0.000006 152.145141 -5.320991 -178.450672 -45.717905 -2.141883 3.408047 88.000185 -2.808255 -2.647763 21.454557 -0.003109 -0.000018 10.167195 0.152150 -1.400456 10.316421 0.428549 -2.781726 9.998708 0.411881 -2.784250 8.898624 0.611867 0.157935 -18.511732 -6.103221 2.532195 -166.414772 -82.456858 -15.325387 3.292301 60.058728 23.888192 -85.841046 -7.245585 2.628150 -6.669214 -13.714584 24.068581 176.469808 73.722480 -2.227632 21.389480 -43.984195 -62.865710 -54.337645 19.974929 -2.261961 2.392362 3.884528 -20.473323 
